<svg width="45" height="45" viewBox="0 0 45 45" fill="none" xmlns="http://www.w3.org/2000/svg">
<rect x="0.5" y="0.5" width="44" height="44" rx="22" fill="white" stroke="#659AD3"/>
<path d="M35.0469 15.1953L23.7266 8.67969C23.5391 8.5625 23.2813 8.51562 23 8.51562C22.7187 8.51562 22.4609 8.58594 22.2734 8.67969L11.0234 15.2188C10.625 15.4531 10.3438 16.0391 10.3438 16.4844V29.5391C10.3438 29.7969 10.3906 30.1016 10.5781 30.3594L35.6094 15.8281C35.4688 15.5469 35.2578 15.3359 35.0469 15.1953Z" fill="#659AD3"/>
<path d="M10.5078 30.3359C10.625 30.5234 10.7891 30.6875 10.9531 30.7812L22.25 37.3203C22.4375 37.4375 22.6953 37.4844 22.9766 37.4844C23.2578 37.4844 23.5156 37.4141 23.7031 37.3203L34.9531 30.7812C35.3516 30.5469 35.6328 29.9609 35.6328 29.5156V16.4609C35.6328 16.25 35.6094 16.0156 35.4922 15.8047L10.5078 30.3359Z" fill="#03599C"/>
<path d="M27.9922 25.8359C27.0078 27.5703 25.1328 28.7422 23 28.7422C19.8359 28.7422 17.2578 26.1641 17.2578 23C17.2578 19.8359 19.8359 17.2578 23 17.2578C25.1328 17.2578 27.0078 18.4297 27.9922 20.1875L31.0391 18.4297C29.4453 15.6406 26.4453 13.7422 23 13.7422C17.8906 13.7422 13.7422 17.8906 13.7422 23C13.7422 28.1094 17.8906 32.2578 23 32.2578C26.4219 32.2578 29.4219 30.3828 31.0156 27.6172L27.9922 25.8359Z" fill="white"/>
</svg>
