<svg width="45" height="45" viewBox="0 0 45 45" fill="none" xmlns="http://www.w3.org/2000/svg">
<rect x="0.5" y="0.5" width="44" height="44" rx="22" fill="white" stroke="#5C8DBC"/>
<g clip-path="url(#clip0_2366_6527)">
<path d="M37.9495 16.8241C37.9493 16.321 37.8282 15.8765 37.5834 15.4949C37.3429 15.1198 36.9828 14.8053 36.4998 14.5567C32.5125 12.5133 28.5213 10.4761 24.5353 8.43054C23.4607 7.87914 22.4188 7.89924 21.3521 8.45856C19.765 9.29045 11.8191 13.3366 9.45137 14.5556C8.47625 15.0573 8.00176 15.8251 8.00152 16.8231C8 20.9326 8.00152 25.042 8 29.1516C8.00023 29.6436 8.11613 30.0795 8.35016 30.4553C8.59074 30.8418 8.9559 31.1649 9.45008 31.4192C11.818 32.6381 19.7649 36.684 21.3516 37.5161C22.4187 38.0757 23.4607 38.0957 24.5356 37.5441C28.5218 35.4985 32.5132 33.4614 36.5011 31.4179C36.9952 31.1638 37.3604 30.8405 37.601 30.4543C37.8346 30.0785 37.9508 29.6426 37.951 29.1504C37.951 29.1504 37.951 20.9337 37.9495 16.8241Z" fill="#5C8DBC"/>
<path d="M23.0213 22.9473L8.3501 30.4553C8.59068 30.8418 8.95584 31.1649 9.45002 31.4191C11.8179 32.6381 19.7649 36.6839 21.3516 37.516C22.4187 38.0756 23.4606 38.0956 24.5356 37.544C28.5217 35.4984 32.5131 33.4613 36.501 31.4179C36.9952 31.1637 37.3603 30.8404 37.6009 30.4542L23.0213 22.9473Z" fill="#1A4674"/>
<path d="M18.6758 25.1712C19.5295 26.4959 21.1344 27.3893 22.9754 27.3893C24.8278 27.3893 26.4418 26.4845 27.2912 25.1457L23.0212 22.9473L18.6758 25.1712Z" fill="#1A4674"/>
<path d="M37.9496 16.8243C37.9494 16.3212 37.8284 15.8766 37.5836 15.4951L23.0215 22.9475L37.6011 30.4545C37.8348 30.0787 37.9509 29.6428 37.9512 29.1506C37.9512 29.1506 37.9512 20.9338 37.9496 16.8243Z" fill="#1B598E"/>
<path d="M37.1478 23.4841H36.0085V24.4969H34.8689V23.4841H33.7297V22.4716H34.8689V21.459H36.0085V22.4716H37.1478V23.4841ZM32.9905 23.4841H31.8513V24.4969H30.7121V23.4841H29.5728V22.4716H30.7121V21.459H31.8513V22.4716H32.9905V23.4841Z" fill="white"/>
<path d="M27.2914 25.1456C26.442 26.4844 24.828 27.3892 22.9756 27.3892C21.1346 27.3892 19.5297 26.4957 18.676 25.1711C18.2471 24.5064 18.0219 23.7534 18.0228 22.9871C18.0228 20.556 20.2403 18.5852 22.9756 18.5852C24.8048 18.5852 26.4012 19.4675 27.2591 20.7786L31.5882 18.563C29.8675 15.923 26.655 14.147 22.9756 14.147C17.4823 14.147 13.0293 18.1049 13.0293 22.9871C13.0293 24.5888 13.5087 26.0909 14.3466 27.3865C16.0629 30.0404 19.2845 31.8274 22.9756 31.8274C26.6734 31.8274 29.9001 30.0332 31.6139 27.3715L27.2914 25.1456Z" fill="white"/>
</g>
<defs>
<clipPath id="clip0_2366_6527">
<rect width="30" height="30" fill="white" transform="translate(8 8)"/>
</clipPath>
</defs>
</svg>
