<svg width="45" height="45" viewBox="0 0 45 45" fill="none" xmlns="http://www.w3.org/2000/svg">
<rect x="0.5" y="0.5" width="44" height="44" rx="22" fill="white" stroke="#A179DC"/>
<g clip-path="url(#clip0_2366_6526)">
<path d="M37.8667 16.8806C37.8664 16.3811 37.7463 15.9398 37.5032 15.5611C37.2645 15.1885 36.9069 14.8763 36.4273 14.6295C32.4686 12.6007 28.506 10.5781 24.5486 8.54723C23.4817 7.99978 22.4472 8.01984 21.3883 8.57515C19.8126 9.40098 11.9236 13.4181 9.5728 14.6283C8.60467 15.1266 8.13358 15.8889 8.13335 16.8797C8.13184 20.9597 8.13335 25.0397 8.13184 29.1198C8.13184 29.6083 8.24714 30.0412 8.47948 30.4142C8.71834 30.7979 9.08088 31.1187 9.57152 31.3711C11.9224 32.5813 19.8124 36.5982 21.3878 37.4243C22.4472 37.9799 23.4817 37.9998 24.5489 37.4522C28.5065 35.4213 32.4693 33.3987 36.4286 31.3699C36.9193 31.1176 37.2818 30.7966 37.5207 30.4131C37.7527 30.04 37.8682 29.6072 37.8682 29.1186C37.8682 29.1186 37.8682 20.9607 37.8667 16.8806Z" fill="#A179DC"/>
<path d="M23.0455 22.96L8.47949 30.4142C8.71835 30.7979 9.08089 31.1187 9.57153 31.3711C11.9225 32.5813 19.8124 36.5982 21.3878 37.4243C22.4473 37.9799 23.4817 37.9998 24.549 37.4522C28.5065 35.4213 32.4693 33.3987 36.4286 31.3699C36.9193 31.1175 37.2818 30.7966 37.5207 30.4131L23.0455 22.96Z" fill="#280068"/>
<path d="M37.8666 16.881C37.8663 16.3816 37.7462 15.9402 37.5031 15.5615L23.0454 22.9605L37.5206 30.4135C37.7526 30.0404 37.8679 29.6077 37.8681 29.1191C37.8681 29.1191 37.8681 20.9612 37.8666 16.881Z" fill="#390091"/>
<path d="M31.6214 20.1733V21.5667H33.1891V20.1733H33.9729V21.5667H35.5406V22.2634H33.9729V23.6566H35.5406V24.3533H33.9729V25.7466H33.1891V24.3533H31.6214V25.7466H30.8376V24.3533H29.27V23.6566H30.8376V22.2634H29.27V21.5667H30.8376V20.1733H31.6214ZM33.1891 22.2633H31.6214V23.6566H33.1891V22.2633Z" fill="white"/>
<path d="M23.0776 13.1759C27.1665 13.1759 30.7364 15.1496 32.6485 18.0833L32.6299 18.0551L27.819 20.517C26.8712 19.0907 25.1337 18.1281 23.1403 18.1082L23.0774 18.1079C20.0379 18.1079 17.5736 20.2981 17.5736 22.9997C17.5726 23.8512 17.8229 24.6881 18.2995 25.4267C19.2482 26.8988 21.0317 27.8916 23.0776 27.8916C25.1361 27.8916 26.9297 26.8862 27.8735 25.3984L27.8506 25.4341L32.6542 27.9074C30.763 30.8163 27.242 32.7839 23.2007 32.8231L23.0776 32.8237C18.9757 32.8237 15.3957 30.8379 13.4883 27.8886C12.5572 26.4488 12.0244 24.7797 12.0244 22.9997C12.0244 17.5742 16.9729 13.1758 23.0774 13.1758L23.0776 13.1759Z" fill="white"/>
</g>
<defs>
<clipPath id="clip0_2366_6526">
<rect width="30" height="30" fill="white" transform="translate(8 8)"/>
</clipPath>
</defs>
</svg>
