<svg width="45" height="45" viewBox="0 0 45 45" fill="none" xmlns="http://www.w3.org/2000/svg">
<rect x="0.5" y="0.5" width="44" height="44" rx="22" fill="white" stroke="#3C9CD7"/>
<g clip-path="url(#clip0_2366_6524)">
<path d="M33.0806 34.2259L22.9644 36.9498L12.8481 34.2259L10.5137 8.93555H35.4153L33.0806 34.2259Z" fill="#2062AF"/>
<path d="M22.9644 10.9839V34.7772L22.9872 34.7834L31.1738 32.579L33.0634 10.9839H22.9644Z" fill="#3C9CD7"/>
<path d="M22.9553 17.3076L15.7148 20.3231L15.955 23.3086L22.9553 20.3155L30.4019 17.1317L30.7106 14.0776L22.9553 17.3076Z" fill="white"/>
<path d="M15.7148 20.3231L15.955 23.3086L22.9553 20.3155V17.3076L15.7148 20.3231Z" fill="url(#paint0_linear_2366_6524)"/>
<path d="M30.7109 14.0776L22.9556 17.3075V20.3154L30.4021 17.1316L30.7109 14.0776Z" fill="url(#paint1_linear_2366_6524)"/>
<path d="M15.7261 20.3232L15.9663 23.3088L26.7074 23.343L26.4671 27.3237L22.9327 28.3187L19.535 27.4608L19.3292 24.9901H16.1721L16.584 29.76L22.967 31.6473L29.3154 29.7942L30.1391 20.3232H15.7261Z" fill="url(#paint2_linear_2366_6524)"/>
<path opacity="0.05" d="M22.9553 20.3232H15.7148L15.955 23.3088L22.9553 23.3311V20.3232ZM22.9553 28.3092L22.921 28.3188L19.5238 27.4609L19.3179 24.9901H16.161L16.5727 29.7601L22.9553 31.6474V28.3092Z" fill="black"/>
<path d="M15.063 14.0776H30.7108L30.4021 17.1317H15.4404L15.063 14.0776Z" fill="url(#paint3_linear_2366_6524)"/>
<path opacity="0.05" d="M22.9555 14.0776H15.063L15.4404 17.1317H22.9555V14.0776Z" fill="black"/>
</g>
<defs>
<linearGradient id="paint0_linear_2366_6524" x1="19.3351" y1="23.3087" x2="19.3351" y2="17.3077" gradientUnits="userSpaceOnUse">
<stop offset="0.387" stop-color="#D1D3D4" stop-opacity="0"/>
<stop offset="1" stop-color="#D1D3D4"/>
</linearGradient>
<linearGradient id="paint1_linear_2366_6524" x1="26.8331" y1="20.3155" x2="26.8331" y2="14.0777" gradientUnits="userSpaceOnUse">
<stop offset="0.387" stop-color="#D1D3D4" stop-opacity="0"/>
<stop offset="1" stop-color="#D1D3D4"/>
</linearGradient>
<linearGradient id="paint2_linear_2366_6524" x1="15.7261" y1="25.9853" x2="30.139" y2="25.9853" gradientUnits="userSpaceOnUse">
<stop stop-color="#E8E7E5"/>
<stop offset="1" stop-color="white"/>
</linearGradient>
<linearGradient id="paint3_linear_2366_6524" x1="15.063" y1="15.6047" x2="30.7108" y2="15.6047" gradientUnits="userSpaceOnUse">
<stop stop-color="#E8E7E5"/>
<stop offset="1" stop-color="white"/>
</linearGradient>
<clipPath id="clip0_2366_6524">
<rect width="40" height="40" fill="white" transform="translate(3 3)"/>
</clipPath>
</defs>
</svg>
