<svg width="45" height="45" viewBox="0 0 45 45" fill="none" xmlns="http://www.w3.org/2000/svg">
<rect x="0.5" y="0.5" width="44" height="44" rx="22" fill="white" stroke="#595959"/>
<g clip-path="url(#clip0_2366_6508)">
<path d="M8.26535 26.2303H4V18H8.26535V18.85H4.88939V21.5017H8.06092V22.3459H4.88959V25.3746H8.26535V26.2303ZM11.2116 23.0722L9.21766 20.0603H10.2067L11.7191 22.4249L13.2266 20.0603H14.2053L12.2112 23.0722L14.3097 26.2303H13.3258L11.7193 23.7309L10.0969 26.2303H9.11287L11.2116 23.0722ZM18.1144 26.3431C17.7411 26.3431 17.3992 26.2698 17.0886 26.1232C16.7816 25.9731 16.5235 25.7443 16.3141 25.4365H16.2514C16.2932 25.7968 16.3141 26.1383 16.3141 26.4611V28.9997H15.4454V20.0605H16.152L16.2723 20.9047H16.3141C16.5374 20.5669 16.7973 20.3231 17.094 20.173C17.3904 20.0229 17.7305 19.9478 18.1144 19.9478C18.8749 19.9478 19.4611 20.2274 19.8729 20.7866C20.288 21.3457 20.4955 22.1301 20.4955 23.1397C20.4955 24.1531 20.2845 24.9412 19.8624 25.504C19.4437 26.0634 18.8611 26.3431 18.1144 26.3431ZM17.9889 20.7414C17.4027 20.7414 16.9789 20.9159 16.7173 21.2649C16.4557 21.6139 16.3214 22.1694 16.3143 22.9313V23.1394C16.3143 24.0064 16.4486 24.6276 16.7173 25.0029C16.9859 25.3744 17.4168 25.5601 18.01 25.5601C18.5054 25.5601 18.8926 25.3444 19.1717 24.9128C19.4543 24.4812 19.5956 23.8864 19.5956 23.1283C19.5956 22.3589 19.4543 21.7696 19.1717 21.3605C18.8926 20.9478 18.4984 20.7414 17.9889 20.7414ZM24.6301 19.9476C24.8848 19.9476 25.1134 19.9701 25.3158 20.015L25.1954 20.8821C24.9581 20.8257 24.7488 20.7975 24.5674 20.7975C24.1033 20.7975 23.7056 21.0002 23.3741 21.4056C23.0462 21.811 22.8823 22.3158 22.8823 22.92V26.2301H22.0135V20.0603H22.7304L22.8299 21.2032H22.8718C23.0845 20.8017 23.341 20.4921 23.6411 20.2744C23.9412 20.0567 24.2708 19.9478 24.6301 19.9478M28.5971 26.3428C27.7494 26.3428 27.0795 26.0652 26.5875 25.5098C26.099 24.9542 25.8547 24.183 25.8547 23.196C25.8547 22.2015 26.0815 21.4116 26.5351 20.8261C26.9921 20.2406 27.6045 19.9478 28.3721 19.9478C29.0908 19.9478 29.6595 20.203 30.0782 20.7134C30.4969 21.2201 30.7062 21.89 30.7062 22.7231V23.3143H26.755C26.7724 24.0385 26.9415 24.5883 27.2625 24.9636C27.587 25.339 28.0423 25.5266 28.6285 25.5266C29.246 25.5266 29.8566 25.3878 30.4601 25.1101V25.9432C30.1531 26.0858 29.8618 26.1871 29.5862 26.2472C29.3141 26.311 28.9844 26.3428 28.5971 26.3428ZM28.3615 20.7303C27.9011 20.7303 27.533 20.8917 27.2574 21.2145C26.9852 21.5372 26.8247 21.9838 26.7759 22.5542H29.7745C29.7745 21.965 29.6525 21.5146 29.4083 21.2032C29.1641 20.8879 28.8151 20.7303 28.3615 20.7303ZM35.8871 24.5471C35.8871 25.1213 35.6883 25.5641 35.2905 25.8757C34.8927 26.1873 34.3345 26.343 33.6159 26.3428C32.8553 26.3428 32.2622 26.2133 31.8365 25.9543V25.0875C32.1122 25.2376 32.407 25.3558 32.721 25.4421C33.0385 25.5285 33.3438 25.5717 33.6368 25.5717C34.0903 25.5717 34.4393 25.4947 34.6835 25.3409C34.9278 25.1832 35.0499 24.9448 35.0499 24.6259C35.0499 24.3857 34.9522 24.1812 34.7568 24.0122C34.5649 23.8396 34.1881 23.637 33.6264 23.4044C33.0925 23.1905 32.7122 23.0047 32.4856 22.8472C32.2622 22.6856 32.0947 22.5036 31.983 22.301C31.8749 22.0983 31.8209 21.8562 31.8209 21.5747C31.8209 21.0718 32.011 20.6759 32.3913 20.387C32.7716 20.0942 33.2932 19.9478 33.9561 19.9478C34.5737 19.9478 35.1772 20.0829 35.7669 20.353L35.458 21.1131C34.8824 20.8579 34.3608 20.7303 33.8932 20.7303C33.4815 20.7303 33.1711 20.7997 32.9617 20.9387C32.7524 21.0774 32.6477 21.2689 32.6477 21.513C32.6477 21.6781 32.6861 21.8188 32.7628 21.9351C32.8432 22.0514 32.9705 22.162 33.1449 22.2671C33.3193 22.3723 33.6542 22.5243 34.1496 22.7231C34.83 22.9896 35.2888 23.2579 35.5261 23.528C35.7669 23.7983 35.8871 24.138 35.8871 24.5471ZM41.0004 24.5471C41.0004 25.1213 40.8015 25.5641 40.4038 25.8757C40.006 26.1873 39.4478 26.343 38.7292 26.3428C37.9686 26.3428 37.3755 26.2133 36.9498 25.9543V25.0875C37.2254 25.2376 37.5202 25.3558 37.8342 25.4421C38.1518 25.5285 38.4571 25.5717 38.75 25.5717C39.2036 25.5717 39.5525 25.4947 39.7968 25.3409C40.0409 25.1832 40.163 24.9448 40.163 24.6259C40.163 24.3857 40.0654 24.1812 39.87 24.0122C39.6782 23.8396 39.3013 23.637 38.7395 23.4044C38.2057 23.1905 37.8254 23.0047 37.5986 22.8472C37.3754 22.6856 37.208 22.5036 37.0965 22.301C36.9882 22.0983 36.9341 21.8562 36.9341 21.5747C36.9341 21.0718 37.1243 20.6759 37.5045 20.387C37.8848 20.0942 38.4064 19.9478 39.0694 19.9478C39.6869 19.9478 40.2905 20.0829 40.8801 20.353L40.5713 21.1131C39.9957 20.8579 39.4741 20.7303 39.0065 20.7303C38.5948 20.7303 38.2843 20.7997 38.075 20.9387C37.8657 21.0774 37.761 21.2689 37.761 21.513C37.761 21.6781 37.7994 21.8188 37.8761 21.9351C37.9563 22.0514 38.0837 22.162 38.2582 22.2671C38.4326 22.3723 38.7675 22.5243 39.2629 22.7231C39.9433 22.9896 40.4021 23.2579 40.6394 23.528C40.88 23.7983 41.0004 24.138 41.0004 24.5471Z" fill="#595959"/>
</g>
<defs>
<clipPath id="clip0_2366_6508">
<rect width="37" height="11" fill="white" transform="translate(4 18)"/>
</clipPath>
</defs>
</svg>
