<svg width="45" height="46" viewBox="0 0 45 46" fill="none" xmlns="http://www.w3.org/2000/svg">
<rect x="0.5" y="1.5" width="44" height="44" rx="22" fill="white" stroke="black"/>
<g clip-path="url(#clip0_2366_6503)">
<path fill-rule="evenodd" clip-rule="evenodd" d="M22.5015 2C10.076 2 0.00146484 11.8692 0.00146484 24.0421C0.00146484 33.7828 6.44776 42.0436 15.3893 44.9571C16.5143 45.1596 16.9247 44.478 16.9247 43.8968L16.8924 39.7933C10.6353 41.1254 9.31309 37.1944 9.31309 37.1944C8.28877 34.6488 6.8151 33.9711 6.8151 33.9711C4.77015 32.6042 6.97574 32.6306 6.97574 32.6306C9.23477 32.784 10.424 34.9017 10.424 34.9017C12.4318 38.2707 15.6918 37.2965 16.972 36.7315C17.1765 35.3101 17.7595 34.3368 18.4002 33.7875C13.4058 33.2309 8.15209 31.3391 8.15209 22.8927C8.15209 20.485 9.0296 18.5206 10.4664 16.9774C10.237 16.4179 9.46236 14.1749 10.6888 11.1413C10.6888 11.1413 12.5756 10.5493 16.8762 13.4014C18.6699 12.9107 20.5941 12.6679 22.5012 12.6604C24.4125 12.6685 26.338 12.9133 28.1341 13.404C32.4274 10.549 34.3163 11.1439 34.3163 11.1439C35.5467 14.1804 34.7718 16.42 34.5414 16.9774C35.9835 18.5203 36.8542 20.4847 36.8542 22.8927C36.8542 31.3608 31.5919 33.2254 26.5794 33.7712C27.3899 34.4542 28.1062 35.7947 28.1062 37.8504L28.0761 43.8989C28.0761 44.4856 28.4855 45.1715 29.6253 44.9612C38.5604 42.0384 45.0015 33.7776 45.0015 24.0421C45.0015 11.8692 34.9266 2 22.5015 2Z" fill="black"/>
</g>
<defs>
<clipPath id="clip0_2366_6503">
<rect width="45" height="45" fill="white"/>
</clipPath>
</defs>
</svg>
