<svg width="45" height="45" viewBox="0 0 45 45" fill="none" xmlns="http://www.w3.org/2000/svg">
<rect x="0.5" y="0.5" width="44" height="44" rx="22" fill="white" stroke="#EF652A"/>
<path d="M12.1602 34.9531L9.75781 8H36.1836L33.7812 34.9531L22.9414 38" fill="#E34F26"/>
<path d="M23 35.6562L31.7305 33.2539L33.7812 10.168H23" fill="#EF652A"/>
<path d="M23 20.1875H18.6055L18.3125 16.7891H23V13.5078H14.6797L15.5586 23.5273H23V20.1875ZM22.9414 28.8008L19.25 27.8047L19.0156 25.168H15.7344L16.1445 30.3828L22.9414 32.2578V28.8008Z" fill="#EBEBEB"/>
<path d="M22.9414 20.1875V23.5273H27.043L26.6328 27.8047L22.9414 28.8008V32.2578L29.7383 30.3828L30.6758 20.1875H22.9414ZM22.9414 13.5078V16.7891H30.9688L31.2617 13.5078H22.9414Z" fill="white"/>
</svg>
