<svg width="45" height="45" viewBox="0 0 45 45" fill="none" xmlns="http://www.w3.org/2000/svg">
<rect x="0.5" y="0.5" width="44" height="44" rx="22" fill="white" stroke="#8CC84B"/>
<path fill-rule="evenodd" clip-rule="evenodd" d="M21.5563 5.38232C21.9945 5.13193 22.4926 5 22.9997 5C23.5069 5 24.005 5.13193 24.4432 5.38232L37.6289 12.9545C38.4555 13.4278 39.0081 14.3631 38.9999 15.3316V30.5231C39.0063 31.5315 38.3988 32.4892 37.5265 32.9517L24.3879 40.4877C23.4955 41.0066 22.3335 40.9668 21.469 40.4052L17.5266 38.0877C17.2583 37.925 16.9557 37.7955 16.7659 37.5311C16.9337 37.3016 17.2331 37.273 17.4763 37.1726C18.0245 36.9956 18.5282 36.711 19.0315 36.4349C19.1591 36.3462 19.3145 36.3802 19.4366 36.4595L22.7997 38.4364C23.0402 38.5776 23.2834 38.3902 23.4891 38.2737L36.3896 30.8714C36.5487 30.7934 36.6369 30.6217 36.6241 30.4442L36.6255 15.4096C36.6438 15.2084 36.5291 15.0233 36.3503 14.9408L23.2573 7.43761C23.1024 7.3296 22.8985 7.32916 22.7431 7.43672L9.651 14.9431C9.56124 14.9831 9.4864 15.0495 9.43685 15.1331C9.3873 15.2167 9.36548 15.3133 9.37443 15.4096V30.4451C9.35889 30.6222 9.45352 30.7907 9.61169 30.8669L13.1084 32.8747C13.7648 33.2341 14.5712 33.4474 15.2944 33.1722C15.9326 32.9396 16.3801 32.2773 16.3682 31.588L16.3728 16.6416C16.3568 16.4202 16.5634 16.2378 16.7746 16.2584L18.4542 16.2598C18.6878 16.2544 18.8487 16.4924 18.8199 16.7156L18.8162 31.7565C18.8176 33.0925 18.2777 34.5463 17.0622 35.2002C15.5646 35.989 13.7136 35.8218 12.2343 35.0653C10.9534 34.4155 9.73146 33.6482 8.47341 32.9522C7.59844 32.4919 6.9941 31.5306 7.00004 30.5231V15.3316C7.00047 14.8437 7.1317 14.3646 7.38058 13.9421C7.62947 13.5196 7.98726 13.1687 8.41809 12.9245L21.5563 5.38232ZM25.3776 15.9057C27.288 15.7807 29.3328 15.8318 31.0516 16.7886C32.3823 17.5218 33.1202 19.0608 33.1439 20.564C33.1069 20.7665 32.8984 20.8786 32.7078 20.8647C32.1538 20.8638 31.5993 20.8723 31.0452 20.8607C30.8102 20.8696 30.6735 20.6496 30.6438 20.438C30.4847 19.7187 30.0989 19.0061 29.4329 18.6593C28.4107 18.1389 27.2253 18.1649 26.1108 18.1761C25.2971 18.2201 24.4221 18.2918 23.7328 18.778C23.2034 19.1464 23.0429 19.8904 23.2317 20.4896C23.4096 20.9198 23.8983 21.0587 24.2978 21.1865C26.6 21.7987 29.0393 21.7377 31.2975 22.5435C32.2324 22.872 33.1471 23.5102 33.4671 24.5056C33.8859 25.8393 33.7021 27.4339 32.7686 28.5046C32.0116 29.3857 30.9094 29.8652 29.8095 30.126C28.3467 30.4577 26.8285 30.4662 25.3433 30.3188C23.9463 30.157 22.493 29.7837 21.4146 28.8161C20.4926 28.0022 20.0423 26.7334 20.0866 25.5095C20.0971 25.3029 20.2996 25.1586 20.4944 25.1756L22.1689 25.1765C22.392 25.1604 22.557 25.3562 22.5684 25.57C22.6713 26.2552 22.925 26.9745 23.5124 27.381C24.6466 28.125 26.0701 28.0743 27.3689 28.095C28.445 28.0466 29.6527 28.0318 30.5309 27.3084C30.9945 26.8961 31.1316 26.2059 31.0063 25.6121C30.8706 25.1111 30.3549 24.8776 29.9124 24.7247C27.64 23.9938 25.1732 24.2591 22.9227 23.4327C22.0089 23.1042 21.1252 22.4835 20.7746 21.5293C20.285 20.1785 20.509 18.5078 21.5403 17.473C22.5456 16.444 23.9979 16.0473 25.3776 15.9057Z" fill="#8CC84B"/>
</svg>
