<svg width="45" height="45" viewBox="0 0 45 45" fill="none" xmlns="http://www.w3.org/2000/svg">
<rect x="0.5" y="0.5" width="44" height="44" rx="22" fill="white" stroke="#377DB7"/>
<path fill-rule="evenodd" clip-rule="evenodd" d="M22.3813 6.0293C14.0188 6.0293 14.5409 9.67465 14.5409 9.67465L14.5504 13.4514H22.5308V14.5854H11.3806C11.3806 14.5854 6.0293 13.9755 6.0293 22.4571C6.0293 30.9386 10.6999 30.6384 10.6999 30.6384H13.4876V26.7024C13.4876 26.7024 13.3373 22.0074 18.0837 22.0074H25.9987C25.9987 22.0074 30.4453 22.0795 30.4453 17.6872V10.4245C30.4453 10.4245 31.1206 6.0293 22.3813 6.0293ZM17.9808 8.56906C18.3616 8.56865 18.7269 8.72059 18.9962 8.99153C19.2665 9.26248 19.4183 9.62958 19.4183 10.0123C19.4183 10.395 19.2665 10.7621 18.9962 11.0331C18.7269 11.3036 18.3616 11.4555 17.9808 11.4555C17.5999 11.4555 17.2346 11.304 16.9654 11.0331C16.6951 10.7621 16.5433 10.395 16.5433 10.0123C16.5433 9.62958 16.6951 9.26248 16.9654 8.99153C17.2346 8.721 17.5999 8.56906 17.9808 8.56906Z" fill="url(#paint0_linear_2366_6509)"/>
<path fill-rule="evenodd" clip-rule="evenodd" d="M22.619 38.9708C30.9815 38.9708 30.4594 35.3254 30.4594 35.3254L30.4499 31.5487H22.4695V30.4147H33.6193C33.6193 30.4147 38.9706 31.025 38.9706 22.543C38.9706 14.0611 34.2999 14.3617 34.2999 14.3617H31.5123V18.2977C31.5123 18.2977 31.6626 22.9927 26.9161 22.9927H19.0016C19.0016 22.9927 14.5546 22.9206 14.5546 27.3129V34.5756C14.5546 34.5756 13.8797 38.9708 22.619 38.9708ZM27.0191 36.431C26.6382 36.4314 26.273 36.2795 26.0037 36.0086C25.7334 35.7376 25.5816 35.3705 25.5816 34.9878C25.5816 34.6051 25.7334 34.238 26.0037 33.967C26.273 33.6965 26.6382 33.5445 27.0191 33.5445C27.4 33.5445 27.7652 33.6961 28.0345 33.967C28.3048 34.238 28.4566 34.6051 28.4566 34.9878C28.4566 35.3705 28.3048 35.7376 28.0345 36.0086C27.7652 36.2791 27.4 36.431 27.0191 36.431Z" fill="url(#paint1_linear_2366_6509)"/>
<defs>
<linearGradient id="paint0_linear_2366_6509" x1="1276.29" y1="6.0293" x2="1177.12" y2="2467.01" gradientUnits="userSpaceOnUse">
<stop stop-color="#387EB8"/>
<stop offset="1" stop-color="#366994"/>
</linearGradient>
<linearGradient id="paint1_linear_2366_6509" x1="1235.95" y1="14.3604" x2="1235.95" y2="2475.4" gradientUnits="userSpaceOnUse">
<stop stop-color="#FFE052"/>
<stop offset="1" stop-color="#FFC331"/>
</linearGradient>
</defs>
</svg>
